# xmcd
#
# Track frame offsets: 
#        150
#        33623
#        54902
#        74471
#        96887
#        113402
#        127321
#        145830
#        171911
#        202972
#        227008
#        252893
#        274964
#        296490
#
# Disc length: 4252 seconds
#
# Revision: 0
# Processed by: cddbd v1.5.2PL0 Copyright (c) Steve Scherf et al.
# Submitted via: ExactAudioCopy v1.3
#
DISCID=d1109a0e
DTITLE=Ina Forsman, Ally Venable, Katarina Pejak - Blues Caravan 2019L
DTITLE=ive
DYEAR=2019
DGENRE=Blues
TTITLE0=They Say I'm Different  (Ina Forsman, Ally Venable, Katarina P
TTITLE0=ejak)
TTITLE1=She's Coming After You (Katarina Pejak)
TTITLE2=Roads That Cross (Katarina Pejak)
TTITLE3=Turtle Blues (Katarina Pejak)
TTITLE4=Texas Honey (Ally Venable)
TTITLE5=Nowhere To Hide (Ally Venable)
TTITLE6=Broken (Ally Venable)
TTITLE7=All Good (Ina Forsman)
TTITLE8=Miss Mistreated (Ina Forsman)
TTITLE9=Genius (Ina Forsman)
TTITLE10=Love Me Like A Man (Ina Forsman, Ally Venable, Katarina Pejak
TTITLE10=)
TTITLE11=I'm A Good Woman (Ina Forsman, Ally Venable, Katarina Pejak)
TTITLE12=Sixteen Tons (Ina Forsman, Ally Venable, Katarina Pejak)
TTITLE13=The House Is Rockin' (Ina Forsman, Ally Venable, Katarina Pej
TTITLE13=ak)
EXTD=
EXTT0=
EXTT1=
EXTT2=
EXTT3=
EXTT4=
EXTT5=
EXTT6=
EXTT7=
EXTT8=
EXTT9=
EXTT10=
EXTT11=
EXTT12=
EXTT13=
PLAYORDER=
